<svg xmlns="http://www.w3.org/2000/svg" viewBox="0 0 1135 400" role="img" aria-label="Choco Trail">
  <g transform="translate(40 40) scale(0.6666666666666666)">
  
  <path d="M388 87 L388 91 L385 93 L385 95 L381 98 L381 100 L378 102 L378 104 L375 106 L375 108 L372 110 L372 112 L368 115 L368 117 L365 119 L365 121 L362 123 L362 125 L359 127 L359 129 L355 132 L355 134 L352 136 L352 138 L349 140 L349 142 L345 145 L345 147 L342 149 L342 151 L339 153 L339 155 L336 157 L336 159 L332 162 L332 164 L329 166 L329 168 L326 170 L326 172 L323 174 L323 176 L320 178 L320 180 L317 182 L317 184 L313 187 L313 189 L311 190 L311 192 L307 195 L307 197 L306 197 L306 198 L304 199 L304 201 L300 204 L300 206 L297 208 L297 210 L294 212 L294 214 L291 216 L291 218 L288 220 L288 222 L285 224 L285 226 L281 229 L281 231 L278 233 L278 235 L274 238 L274 240 L271 242 L271 244 L268 246 L268 248 L264 251 L264 253 L261 255 L261 257 L257 260 L257 262 L253 265 L253 267 L250 269 L250 271 L247 273 L247 275 L243 278 L243 280 L240 282 L240 284 L237 286 L237 288 L236 288 L236 289 L234 290 L234 292 L233 292 L233 294 L235 295 L257 272 L259 272 L259 271 L260 271 L260 270 L261 270 L261 269 L262 269 L262 268 L263 268 L263 267 L264 267 L264 266 L265 266 L265 265 L266 265 L266 264 L267 264 L267 263 L268 263 L268 262 L269 262 L269 261 L270 261 L270 260 L271 260 L271 259 L272 259 L272 258 L273 258 L273 257 L274 257 L274 256 L275 256 L275 255 L276 255 L276 254 L277 254 L277 253 L278 253 L278 252 L279 252 L279 251 L280 251 L280 250 L281 250 L281 249 L282 249 L282 248 L283 248 L283 247 L284 247 L284 246 L285 246 L285 245 L286 245 L286 244 L287 244 L287 243 L288 243 L288 242 L289 242 L289 241 L290 241 L290 240 L291 240 L291 239 L292 239 L292 238 L293 238 L293 237 L294 237 L294 236 L295 236 L295 235 L296 235 L296 234 L297 234 L297 233 L298 233 L298 232 L299 232 L348 182 L350 182 L368 163 L371 163 L371 164 L373 165 L372 171 L370 171 L370 172 L368 173 L368 175 L367 175 L366 177 L364 177 L364 178 L360 181 L360 183 L357 184 L356 187 L354 187 L353 190 L352 190 L348 195 L346 195 L346 196 L343 198 L343 200 L341 200 L340 203 L339 203 L335 208 L333 208 L333 209 L287 254 L287 256 L286 256 L283 260 L281 260 L280 263 L253 289 L253 291 L252 291 L252 292 L243 300 L243 302 L239 305 L239 307 L236 309 L236 311 L234 312 L234 314 L232 315 L231 318 L232 318 L232 319 L237 318 L237 317 L239 317 L239 316 L245 314 L245 313 L248 312 L249 310 L253 309 L254 307 L258 306 L259 304 L261 304 L262 302 L264 302 L265 300 L267 300 L268 298 L270 298 L271 296 L273 296 L274 294 L276 294 L277 292 L279 292 L280 290 L282 290 L284 287 L286 287 L287 285 L289 285 L290 283 L292 283 L293 281 L295 281 L295 280 L296 280 L297 278 L299 278 L301 275 L303 275 L304 273 L306 273 L307 271 L309 271 L310 269 L312 269 L314 266 L316 266 L317 264 L319 264 L321 261 L323 261 L324 259 L326 259 L328 256 L330 256 L331 254 L333 254 L335 251 L337 251 L338 249 L340 249 L342 246 L344 246 L345 244 L347 244 L348 242 L350 242 L352 239 L354 239 L355 237 L357 237 L359 234 L361 234 L362 232 L364 232 L366 229 L371 228 L372 231 L371 231 L370 233 L368 233 L367 235 L365 235 L363 238 L361 238 L361 239 L358 240 L356 243 L354 243 L352 246 L350 246 L349 248 L347 248 L345 251 L343 251 L343 252 L342 252 L341 254 L339 254 L337 257 L335 257 L334 259 L332 259 L330 262 L328 262 L328 263 L327 263 L326 265 L324 265 L322 268 L320 268 L319 270 L317 270 L315 273 L313 273 L311 276 L309 276 L309 277 L308 277 L307 279 L305 279 L303 282 L301 282 L300 284 L298 284 L296 287 L294 287 L293 289 L291 289 L289 292 L287 292 L286 294 L284 294 L282 297 L280 297 L279 299 L277 299 L275 302 L273 302 L272 304 L270 304 L268 307 L266 307 L265 309 L263 309 L261 312 L259 312 L258 314 L256 314 L254 317 L252 317 L251 319 L249 319 L248 321 L246 321 L244 324 L242 324 L241 326 L239 326 L238 328 L236 328 L234 331 L232 331 L231 333 L229 333 L227 336 L225 336 L223 339 L221 339 L221 359 L220 359 L220 363 L219 363 L219 366 L218 366 L218 369 L217 369 L215 375 L213 376 L213 378 L211 379 L211 381 L206 385 L205 388 L203 388 L199 393 L197 393 L196 395 L194 395 L194 396 L192 396 L192 397 L190 397 L190 398 L187 398 L187 399 L184 399 L184 400 L181 400 L181 401 L176 401 L176 402 L162 402 L162 401 L157 401 L157 400 L154 400 L154 399 L150 399 L150 398 L148 398 L148 397 L142 395 L142 394 L139 393 L138 391 L136 391 L136 390 L128 383 L128 381 L126 380 L126 378 L124 377 L124 375 L123 375 L123 373 L122 373 L122 371 L121 371 L121 369 L120 369 L119 362 L118 362 L118 356 L117 356 L117 345 L118 345 L119 334 L120 334 L120 332 L121 332 L121 329 L122 329 L124 323 L125 323 L126 320 L129 318 L129 316 L130 316 L135 310 L137 310 L139 307 L141 307 L142 305 L144 305 L144 304 L146 304 L146 303 L148 303 L148 302 L151 302 L151 301 L157 300 L157 299 L161 299 L161 298 L177 298 L177 299 L180 299 L180 297 L182 296 L182 294 L183 294 L183 292 L184 292 L184 290 L185 290 L185 288 L186 288 L186 286 L187 286 L187 283 L188 283 L188 281 L189 281 L189 279 L190 279 L190 277 L191 277 L191 275 L192 275 L192 273 L193 273 L193 271 L194 271 L194 269 L195 269 L195 267 L196 267 L196 265 L197 265 L197 262 L198 262 L198 260 L199 260 L199 258 L200 258 L200 256 L201 256 L201 254 L202 254 L202 252 L203 252 L203 249 L204 249 L204 247 L205 247 L205 245 L206 245 L206 243 L207 243 L209 237 L213 236 L213 237 L215 238 L215 243 L214 243 L214 246 L213 246 L213 249 L212 249 L212 252 L211 252 L211 256 L210 256 L209 261 L208 261 L207 269 L206 269 L206 272 L205 272 L205 275 L204 275 L204 278 L203 278 L202 283 L205 284 L205 283 L220 269 L220 267 L223 265 L223 263 L226 261 L226 259 L228 258 L228 256 L230 255 L230 253 L232 252 L232 250 L233 250 L234 247 L236 246 L236 244 L237 244 L237 242 L239 241 L240 237 L242 236 L243 232 L245 231 L245 229 L247 228 L248 224 L249 224 L250 221 L252 220 L253 216 L255 215 L256 211 L257 211 L258 208 L260 207 L261 203 L263 202 L264 198 L266 197 L266 195 L267 195 L267 193 L269 192 L270 188 L272 187 L273 183 L274 183 L275 180 L277 179 L279 173 L281 172 L281 170 L282 170 L283 167 L285 166 L285 164 L286 164 L286 162 L288 161 L289 157 L290 157 L291 154 L293 153 L294 149 L296 148 L296 146 L297 146 L297 144 L299 143 L300 139 L302 138 L303 134 L304 134 L305 131 L307 130 L308 126 L309 126 L310 123 L312 122 L313 118 L315 117 L316 113 L318 112 L318 110 L320 109 L321 105 L322 105 L323 102 L325 101 L327 95 L329 94 L329 92 L330 92 L331 89 L333 88 L334 84 L336 83 L336 81 L338 80 L338 78 L339 78 L340 75 L342 74 L343 70 L345 69 L345 67 L346 67 L347 64 L349 63 L350 59 L352 59 L352 58 L358 59 L358 61 L359 61 L358 67 L356 68 L356 70 L354 71 L353 75 L351 76 L351 78 L349 79 L349 81 L347 82 L347 84 L346 84 L345 87 L343 88 L342 92 L340 93 L340 95 L339 95 L338 98 L336 99 L335 103 L334 103 L333 106 L331 107 L330 111 L329 111 L328 114 L326 115 L325 119 L323 120 L323 122 L321 123 L320 127 L319 127 L318 130 L316 131 L315 135 L314 135 L313 138 L311 139 L310 143 L309 143 L308 146 L306 147 L305 151 L304 151 L303 154 L301 155 L301 157 L300 157 L300 159 L298 160 L297 164 L295 165 L294 169 L293 169 L292 172 L290 173 L290 175 L289 175 L289 177 L287 178 L286 182 L284 183 L283 187 L282 187 L281 190 L279 191 L278 195 L276 196 L275 200 L273 201 L272 205 L270 206 L268 212 L267 212 L266 215 L264 216 L263 220 L261 221 L260 225 L258 226 L257 230 L255 231 L254 235 L252 236 L251 240 L249 241 L248 245 L246 246 L245 250 L243 251 L241 257 L239 258 L238 262 L236 263 L235 267 L233 268 L231 274 L229 275 L229 277 L228 277 L228 279 L227 279 L228 282 L231 281 L231 279 L236 275 L236 273 L239 271 L239 269 L243 266 L243 264 L246 262 L246 260 L249 258 L249 256 L252 254 L252 252 L255 250 L255 248 L259 245 L259 243 L262 241 L262 239 L265 237 L265 235 L269 232 L269 230 L272 228 L272 226 L275 224 L275 222 L278 220 L278 218 L281 216 L281 214 L284 212 L284 210 L287 208 L287 206 L291 203 L291 201 L294 199 L294 197 L297 195 L297 193 L300 191 L300 189 L303 187 L303 185 L306 183 L306 181 L309 179 L309 177 L313 174 L313 172 L315 171 L315 169 L319 166 L319 164 L322 162 L322 160 L325 158 L325 156 L328 154 L328 152 L331 150 L331 148 L334 146 L334 144 L338 141 L338 139 L341 137 L341 135 L344 133 L344 131 L347 129 L347 127 L350 125 L350 123 L354 120 L354 118 L357 116 L357 114 L360 112 L360 110 L363 108 L363 106 L366 104 L366 102 L369 100 L369 98 L373 95 L373 93 L376 91 L376 89 L377 89 L381 84 L385 84 L385 85 L387 85 L387 87 Z M127 342 L127 358 L128 358 L128 363 L129 363 L130 368 L131 368 L131 370 L133 371 L134 375 L135 375 L144 385 L146 385 L147 387 L149 387 L149 388 L151 388 L151 389 L154 389 L154 390 L156 390 L156 391 L160 391 L160 392 L178 392 L178 391 L182 391 L182 390 L184 390 L184 389 L187 389 L187 388 L189 388 L190 386 L192 386 L193 384 L195 384 L195 383 L203 376 L203 374 L205 373 L205 371 L206 371 L207 368 L208 368 L208 365 L209 365 L210 360 L211 360 L212 346 L211 346 L211 340 L210 340 L209 334 L208 334 L208 332 L207 332 L205 326 L203 325 L203 323 L202 323 L196 316 L194 316 L193 314 L191 314 L190 312 L188 312 L188 311 L186 311 L186 310 L183 310 L183 309 L180 309 L180 308 L174 308 L174 307 L159 308 L159 309 L153 310 L153 311 L147 313 L146 315 L144 315 L144 316 L134 325 L134 327 L133 327 L133 329 L132 329 L132 331 L131 331 L131 333 L130 333 L130 335 L129 335 L128 342 Z" fill="#22292B" fill-rule="evenodd"/>
</g>
  <path d="M410.412 202.424Q410.412 192.656 411.27 185.39600000000002Q412.128 178.136 414.37199999999996 171.86599999999999Q416.616 165.596 420.312 161.636Q424.008 157.676 429.75 155.498Q435.492 153.32 443.28 153.32Q462.156 153.32 476.94 157.676V172.196Q476.94 172.196 476.346 172.13Q475.752 172.064 474.696 171.93200000000002Q473.64 171.8 472.188 171.668Q470.736 171.536 468.88800000000003 171.404Q467.04 171.272 465.06 171.14Q463.08 171.00799999999998 460.902 170.87599999999998Q458.724 170.744 456.546 170.612Q454.368 170.48 451.99199999999996 170.414Q449.616 170.348 447.636 170.348Q443.94 170.348 441.498 170.678Q439.056 171.00799999999998 436.746 172.196Q434.436 173.38400000000001 433.116 175.562Q431.796 177.74 430.74 181.304Q429.684 184.868 429.288 190.082Q428.892 195.296 428.892 202.688Q428.892 219.848 432.786 227.306Q436.68 234.764 447.636 234.764Q453.84000000000003 234.764 461.16600000000005 234.5Q468.492 234.236 472.716 233.972L476.94 233.708V248.096Q464.004 252.056 443.28 251.792Q434.304 251.66 427.836 248.29399999999998Q421.368 244.928 417.606 238.394Q413.844 231.86 412.128 223.082Q410.412 214.304 410.412 202.424Z" fill="#22292B"/>
  <path d="M486.312 251.0V147.644H504.66V188.432Q506.64 186.98000000000002 507.23400000000004 186.584Q507.82800000000003 186.188 509.742 184.868Q511.656 183.548 512.58 183.152Q513.504 182.756 515.484 181.898Q517.464 181.04 518.982 180.70999999999998Q520.5 180.38 522.6120000000001 180.05Q524.724 179.72 526.9680000000001 179.72Q547.956 179.72 547.956 204.272V251.0H529.476V204.00799999999998Q529.476 198.992 527.4300000000001 196.748Q525.384 194.504 521.688 194.504Q517.992 194.504 515.154 195.23Q512.316 195.956 510.00600000000003 197.20999999999998Q507.696 198.464 504.79200000000003 200.576V251.0Z" fill="#22292B"/>
  <path d="M557.856 216.944Q557.856 206.12 559.44 199.124Q561.024 192.128 564.9839999999999 187.904Q568.944 183.68 574.818 181.964Q580.692 180.248 589.8 180.248Q607.884 180.248 614.8140000000001 188.168Q621.744 196.088 621.744 216.944Q621.744 236.612 614.946 244.136Q608.148 251.66 589.8 251.66Q582.54 251.66 577.194 250.406Q571.848 249.152 568.086 246.644Q564.324 244.136 562.0799999999999 239.978Q559.836 235.82 558.846 230.20999999999998Q557.856 224.6 557.856 216.944ZM576.336 216.944Q576.336 223.676 576.996 227.636Q577.656 231.596 579.438 233.642Q581.22 235.688 583.4639999999999 236.216Q585.708 236.744 589.8 236.744Q593.364 236.744 595.278 236.48000000000002Q597.192 236.216 598.9739999999999 235.16Q600.756 234.10399999999998 601.614 231.85999999999999Q602.472 229.61599999999999 602.8679999999999 226.118Q603.264 222.62 603.264 216.944Q603.264 210.872 602.934 207.11Q602.604 203.348 601.812 200.774Q601.02 198.2 599.304 197.07799999999997Q597.588 195.956 595.476 195.49399999999997Q593.364 195.03199999999998 589.8 195.03199999999998Q586.896 195.03199999999998 585.048 195.296Q583.1999999999999 195.56 581.4839999999999 196.418Q579.768 197.276 578.9100000000001 198.662Q578.052 200.048 577.392 202.55599999999998Q576.732 205.064 576.534 208.49599999999998Q576.336 211.928 576.336 216.944Z" fill="#22292B"/>
  <path d="M631.776 215.888Q631.776 205.328 633.4259999999999 198.13400000000001Q635.0759999999999 190.94 638.31 187.178Q641.544 183.416 645.5039999999999 181.832Q649.4639999999999 180.248 654.876 180.248Q674.28 180.248 687.084 184.34V195.824Q674.544 195.03199999999998 662.7959999999999 195.03199999999998Q659.6279999999999 195.03199999999998 658.1099999999999 195.296Q656.592 195.56 654.7439999999999 196.61599999999999Q652.896 197.672 652.1039999999999 199.916Q651.3119999999999 202.16 650.7839999999999 206.12Q650.256 210.07999999999998 650.256 216.284Q650.256 225.26 651.51 229.61599999999999Q652.7639999999999 233.972 655.2059999999999 235.358Q657.6479999999999 236.744 662.7959999999999 236.744Q668.208 236.744 674.5439999999999 236.48000000000002Q680.8799999999999 236.216 684.444 235.82L688.0079999999999 235.556V247.172Q685.1039999999999 248.624 682.068 249.614Q679.0319999999999 250.604 674.742 251.0Q670.452 251.396 668.67 251.528Q666.8879999999999 251.66 661.212 251.66Q655.536 251.66 654.876 251.66Q639.828 251.66 634.8119999999999 237.932Q631.776 229.61599999999999 631.776 215.888Z" fill="#22292B"/>
  <path d="M696.9839999999999 216.944Q696.9839999999999 206.12 698.568 199.124Q700.1519999999999 192.128 704.1119999999999 187.904Q708.0719999999999 183.68 713.9459999999999 181.964Q719.8199999999999 180.248 728.9279999999999 180.248Q747.012 180.248 753.942 188.168Q760.872 196.088 760.872 216.944Q760.872 236.612 754.074 244.136Q747.276 251.66 728.9279999999999 251.66Q721.6679999999999 251.66 716.3219999999999 250.406Q710.9759999999999 249.152 707.2139999999999 246.644Q703.4519999999999 244.136 701.2079999999999 239.978Q698.9639999999999 235.82 697.9739999999999 230.20999999999998Q696.9839999999999 224.6 696.9839999999999 216.944ZM715.4639999999999 216.944Q715.4639999999999 223.676 716.1239999999999 227.636Q716.7839999999999 231.596 718.5659999999999 233.642Q720.348 235.688 722.5919999999999 236.216Q724.8359999999999 236.744 728.9279999999999 236.744Q732.492 236.744 734.406 236.48000000000002Q736.3199999999999 236.216 738.1019999999999 235.16Q739.8839999999999 234.10399999999998 740.742 231.85999999999999Q741.5999999999999 229.61599999999999 741.9959999999999 226.118Q742.3919999999999 222.62 742.3919999999999 216.944Q742.3919999999999 210.872 742.0619999999999 207.11Q741.732 203.348 740.9399999999999 200.774Q740.1479999999999 198.2 738.4319999999999 197.07799999999997Q736.7159999999999 195.956 734.6039999999999 195.49399999999997Q732.492 195.03199999999998 728.9279999999999 195.03199999999998Q726.0239999999999 195.03199999999998 724.1759999999999 195.296Q722.3279999999999 195.56 720.6119999999999 196.418Q718.896 197.276 718.038 198.662Q717.18 200.048 716.52 202.55599999999998Q715.8599999999999 205.064 715.6619999999999 208.49599999999998Q715.4639999999999 211.928 715.4639999999999 216.944Z" fill="#22292B"/>
  <path d="M813.0119999999998 171.404V154.37599999999998H884.4239999999999V171.404H857.6279999999998V251.0H839.1479999999998V171.404Z" fill="#22292B"/>
  <path d="M893.136 251.0V180.90800000000002H908.7119999999999L911.6159999999999 189.752Q921.516 180.248 931.68 180.248Q937.3559999999999 180.248 939.468 181.04V198.86Q935.7719999999999 198.464 929.3039999999999 198.464Q923.0999999999999 198.464 918.9419999999999 200.114Q914.7839999999999 201.764 911.6159999999999 206.252V251.0Z" fill="#22292B"/>
  <path d="M946.1999999999999 233.18V226.57999999999998Q946.1999999999999 222.488 947.3219999999999 219.188Q948.4439999999998 215.888 950.8199999999999 213.11599999999999Q953.1959999999999 210.344 957.222 208.826Q961.2479999999999 207.308 966.7919999999999 207.308Q971.9399999999999 207.308 977.0219999999999 207.374Q982.1039999999999 207.44 987.3839999999999 207.308Q987.5159999999998 202.952 987.3839999999999 202.82Q987.3839999999999 200.048 986.79 198.332Q986.1959999999999 196.61599999999999 984.876 195.692Q983.5559999999999 194.768 981.972 194.50400000000002Q980.3879999999999 194.24 978.012 194.24Q969.4319999999999 194.24 948.5759999999999 195.692V184.34Q960.3239999999998 179.72 980.5199999999999 179.588Q992.6639999999999 179.588 999.2639999999999 184.67000000000002Q1005.8639999999999 189.752 1005.8639999999999 202.16V251.0H991.2119999999999L987.3839999999999 243.344Q986.8559999999999 244.268 984.0179999999999 246.18200000000002Q981.18 248.096 976.0319999999999 250.01Q970.8839999999999 251.924 965.9999999999999 251.792Q956.4959999999999 251.528 951.348 246.05Q946.1999999999999 240.572 946.1999999999999 233.18ZM964.68 230.54Q964.68 234.5 966.396 235.75400000000002Q968.1119999999999 237.008 971.2799999999999 237.008Q972.8639999999999 237.008 974.5799999999999 236.678Q976.2959999999999 236.348 977.8139999999999 235.88600000000002Q979.3319999999999 235.424 980.7839999999999 234.82999999999998Q982.2359999999999 234.236 983.4239999999999 233.642Q984.6119999999999 233.048 985.4699999999998 232.586Q986.3279999999999 232.124 986.8559999999999 231.79399999999998Q987.3839999999999 231.464 987.3839999999999 231.464V218.66L970.3559999999999 219.98Q968.6399999999999 220.112 967.4519999999999 220.838Q966.2639999999999 221.564 965.6699999999998 222.62Q965.0759999999999 223.676 964.8779999999999 224.732Q964.68 225.788 964.68 227.108Z" fill="#22292B"/>
  <path d="M1015.632 170.48V158.86399999999998Q1015.632 155.43200000000002 1018.8 155.43200000000002H1032.6599999999999Q1035.5639999999999 155.43200000000002 1035.5639999999999 158.86399999999998V170.48Q1035.5639999999999 171.93200000000002 1034.8379999999997 172.724Q1034.1119999999999 173.516 1032.6599999999999 173.516H1018.8Q1017.876 173.516 1017.15 173.18599999999998Q1016.424 172.856 1016.028 172.13Q1015.632 171.404 1015.632 170.48ZM1016.2919999999999 251.0V180.90800000000002H1034.772V251.0Z" fill="#22292B"/>
  <path d="M1046.652 226.052V147.644H1065.132V223.148Q1065.132 230.144 1066.584 232.916Q1068.036 235.688 1071.204 236.876Q1079.124 239.648 1080.048 239.648V251.0H1064.7359999999999Q1060.3799999999999 251.0 1057.08 249.68Q1053.78 248.36 1051.404 245.522Q1049.028 242.684 1047.8400000000001 237.8Q1046.652 232.916 1046.652 226.052Z" fill="#22292B"/>
</svg>
